<?xml version="1.0" encoding="utf-8"?>
<!-- Generator: Adobe Illustrator 26.2.1, SVG Export Plug-In . SVG Version: 6.00 Build 0)  -->
<svg version="1.1" id="Layer_1" xmlns="http://www.w3.org/2000/svg" xmlns:xlink="http://www.w3.org/1999/xlink" x="0px" y="0px"
	 viewBox="0 0 2422.5 2316.6" style="enable-background:new 0 0 2422.5 2316.6;" xml:space="preserve">
<style type="text/css">
	.st0{clip-path:url(#SVGID_00000039105863319782266830000015883538808823716007_);}
	.st1{fill:#EAC1A4;}
	.st2{fill:#D6B199;}
	.st3{fill:#E0B699;}
	.st4{fill:#104568;}
	.st5{fill:#093E5B;}
	.st6{fill:#FFFFFF;}
	.st7{fill:#4F54D9;}
	.st8{fill:#98DAF3;}
	.st9{fill:#10405B;}
	.st10{fill:#154C6B;}
	.st11{fill:#2A45B5;}
	.st12{fill:#D343FF;}
	.st13{fill:#4B79FF;}
	.st14{fill:#175475;}
	.st15{fill:#8848FB;}
	.st16{clip-path:url(#SVGID_00000039105863319782266830000015883538808823716007_);fill:#2E3192;}
</style>
<g>
	<defs>
		<rect id="SVGID_1_" x="-739.7" y="51.1" width="3162.1" height="2265.6"/>
	</defs>
	<clipPath id="SVGID_00000121959277515477853590000013014841801319448747_">
		<use xlink:href="#SVGID_1_"  style="overflow:visible;"/>
	</clipPath>
	<g style="clip-path:url(#SVGID_00000121959277515477853590000013014841801319448747_);">
		<path class="st1" d="M1281.9,468c2.6,0.5,4.2-1.8,7.8,2.8c3.7,4.6,3.4,4,3.8,10.2c0.4,6.2,0.4,7.5,0.6,10.5c0.2,3-3.6,5.5-6.7,8.1
			c-3.1,2.6-5.5,1.1-8-0.4c-2.4-1.5-2.4-1.5-2.4-1.5s-5.8-2.8-6.1-4.7c-0.3-1.9-4.6-4.4-3.7-5.9c0.9-1.5-1.9-4.4-0.4-7.5
			c1.5-3.1,2.1-4.5,5.8-4.6c3.6-0.2,4.2-2.4,4.2-2.4C1277.2,471.4,1278.5,467.3,1281.9,468z"/>
		<path class="st2" d="M1279.2,471.6c-0.1,2.4,4,1.7,5,1.5c1.1-0.2,2-0.2,3.3,2.6c1.3,2.9,2.4,4.4,3.7,4.9c1.2,0.5,2.6-1.5,2.4-2.2
			c-0.2-0.7-1.6-4-3.5-6.6c-1.9-2.5-4-2.8-5.2-3c-1.2-0.1-5.9,0.3-5.9,0.3S1279.3,470.2,1279.2,471.6z"/>
		<path class="st3" d="M1275.4,474.7c0.8,1.2-0.2,2.2,0.9,2.9c1.1,0.6,1.4,0.8,2.9,0.4c1.5-0.4,3.1-1.2,4.4-2
			c1.3-0.9,2.7-0.8,3.1,0.8c0.4,1.5,0.7,1.8,0.6,3c-0.1,1.2-3.4,2.9-4.7,3.7c-1.3,0.9-5.8,3.1-7.2,3.8c-1.4,0.7-5.3,1.3-6,1.3
			c-0.6-0.1-1.7-3-1.7-3s-0.5,0.2,2.1,0.7c2.6,0.5,7.6-1.5,9.8-3.2c2.2-1.7,4.5-3,2.1-4c-2.4-0.9-6.1,0.2-6.8,0.3
			c-0.7,0.2-2.6,0.3-3.4-1C1270.6,477.1,1274.6,473.5,1275.4,474.7z"/>
		<path class="st4" d="M1285.3,464.7c3.1-1.2,16.7-3.4,24.4-6.4c7.7-3,31.6-16,38.7-16.4c7.2-0.4,35.5,7.4,32.3,16.4
			c-3.3,9-6.6,13.5-28.2,16.1c-21.7,2.7-55.1,8.6-59.2,10.6C1293.3,485.1,1281.1,466.4,1285.3,464.7z"/>
		<path class="st5" d="M1419,876c-1.1,7-1.2,9.5-1.2,9.5l-23.1,1.9c0,0,1.7-5.1-0.7-3.9c-2.4,1.2-3.9,1.7-6.2,3.5
			c-2.2,1.8-27.5-1.8-29.7-2.1c-2.2-0.3-1.8-3.9-0.7-4.8c1.1-0.9,18.1-6,22.3-7.6c4.2-1.6,16-8.9,19.1-15.1
			C1402.1,851.2,1421.5,859.5,1419,876z"/>
		<path class="st5" d="M1410.1,526.3c0,1.4,1.8,43.7,0.4,70.5c-1.3,26.8-4.9,35.7-4,45.6c0.9,9.9,7.5,20.2,0.9,28.7
			c-6.6,8.5-27.9,24.4-32.8,11.3c-4.9-13.2-11.5-33.3-11.5-44.2c0-10.8-24.3-86-12.8-124.9C1361.8,474.1,1410.1,526.3,1410.1,526.3z
			"/>
		<path class="st5" d="M1403.4,660.3c0,0,2.7,0.9,10.2,21.1c7.5,20.2,13.4,26.9,8.1,42.4c-5.3,15.5-4.1,9.8-5,32.3
			c-0.9,22.5,5,95.8,2.8,106.6c-2.2,10.8-17.5,7.1-22.4,5.7c-4.9-1.4-7.9-3.8-7.9-3.8s1.3-55.6-6.3-101.1
			c-5.6-33.4-8.2-58.2-10.9-91.5C1369.3,638.7,1398.5,651.4,1403.4,660.3z"/>
		<path class="st1" d="M1193.8,302.2c-6.6,0.8-17.1-17.4-18.7-18.1c-1.6-0.7-10.1-6.2-11.7-6.1c-1.6,0.1-2.2,1.5-2.7,2.4
			c-0.5,0.9-0.7-1.2-3.2,0.5c-2.5,1.7-0.4,1.7-1.6,4c-1.1,2.3-1,0-1.8,2.1c-0.8,2.1,1.1,2.9,0.9,4.6c-0.2,1.8-0.6,1.2-2,2.6
			c-1.4,1.5-0.6,2.2,0.2,4.5c0.7,2.3,0.7-0.6,0.7,2.3c0,2.9,11.4,7.3,17.2,7.8c5.9,0.5,14.4,2.7,19.9,1.5
			C1196.5,309.1,1196.5,301.8,1193.8,302.2z"/>
		<path class="st2" d="M1163.4,278c0,0,10.8,5.4,11.7,6.1c0.8,0.7-12.1-2.3-12.9-3.6C1161.5,279.3,1162.6,277,1163.4,278z"/>
		<path class="st2" d="M1157.5,280.8c0.7,0.3,9.3,5.3,10.8,5.6c1.5,0.4,11.5,9.7,11.5,9.7s-12.9-8.5-14.3-8.9
			c-1.5-0.4-9-1.3-9.5-2.5C1155.4,283.7,1155.4,280,1157.5,280.8z"/>
		<path class="st2" d="M1154.1,287c1,0.3,10,1.5,10.8,2.3c0.8,0.7-0.5,1.9-0.2,4.6c0.3,2.7,14.5,6.1,12.8,6.9
			c-1.8,0.8-20.9-7.7-22.6-9.2C1153.3,290.2,1152.6,286.6,1154.1,287z"/>
		<path class="st2" d="M1153,294.2c0.9,0.4,11,3.6,12.1,4.4c1.1,0.8-10.1,1.8-12,0C1151.3,296.9,1151.3,293.6,1153,294.2z"/>
		<path class="st2" d="M1153.2,301.3c-0.5-0.6,27.3,6,31.7,3.2c4.4-2.8,6.1,1.6,0.9,3.6c-5.2,2-7.9,1.3-10.8,1.6
			c-2.9,0.3-6.9-2.6-11.5-3C1158.9,306.4,1154.2,302.6,1153.2,301.3z"/>
		<path class="st3" d="M1412.9,317.8c-2.4-4.2-3.3-9.3-8.4-9.3c-5.1,0-20.5,2.1-20.5,2.1s-0.3,25.3-1.8,29.2
			c-1.5,3.9,22.9,1.8,22,3.6C1403.3,345.3,1412.9,317.8,1412.9,317.8z"/>
		<path class="st1" d="M1390.9,266.9c-1.2,1.6-15.7,19.9-16,22.6c-0.3,2.7-1.5,15.1-2.1,24.1c-0.6,9,11.5,8.7,15.7,8.4
			c4.2-0.3,22-8.1,24.7-7.5c2.7,0.6,13.9-13.3,16-22.3c2.1-9-18.4-25.6-18.4-25.6C1403.3,265.4,1394.8,261.8,1390.9,266.9z"/>
		<path class="st4" d="M1412.3,291.6c-1.8,2.7-5.4,3-5.4,3s1.5,0.3,0.6,3.6c-0.9,3.3-3.9-1.2-3.9-1.2s2.7-6.6,4.8-13
			c2.1-6.3-0.9-13-0.9-13c-5.1-4.8-10.2-7.2-15.4-3.3c-5.1,3.9-5.4-1.2-5.4-1.2s0.6-3,5.4-3.9c4.8-0.9,18.4-0.3,30.4-0.9
			c12.1-0.6,18.1,17.8,20.2,23.8c2.1,6,5.7,12.1-2.7,23.2c-8.4,11.2-20.5,17.5-23.8,22.9c-3.3,5.4-6.6-0.3-6.6-2.1
			c0-1.8-0.3-6.9,2.4-15.4c2.7-8.4,7.5-12.7,8.7-16.3C1422,294.3,1414.1,288.9,1412.3,291.6z"/>
		<path class="st4" d="M1180.1,312.1c0,0,41.5,21.3,54.5,26.4c13,5.1,21.2,12.2,40,12.1c18.8,0,46.8-9.1,31.3-17.9
			c-15.5-8.8-29.7-18.5-46.8-21.3c-17.1-2.8-26.5-1.9-40.9-6.7c-14.5-4.8-31.4-13.4-31.4-13.4L1180.1,312.1z"/>
		<path class="st6" d="M1400.7,324.6c0,0,21.8,9,23.4,15.2c1.6,6.2,7.4,23.9,2.5,40.7c-4.9,16.9-11.5,35.8-18.1,47.3
			c-6.6,11.5-13.2,10.7-11.9,21.4c1.2,10.7,5.9,35.9-1.1,37.5c-7,1.6-45.6,4.8-47.6-4.6c-2.1-9.5-4.4-60.9-4-70.7
			c0.4-9.9-11.1-30-6.6-43.6c4.5-13.6,25.5-35.8,34.5-45.6C1381,312.3,1400.7,324.6,1400.7,324.6z"/>
		<path class="st4" d="M1407.9,468.3c-7,2.5-31.4,10.8-38.4,10.8c-7,0-25.4-1.5-25.4-1.5s1.5,15.7,4.8,25.2c3.3,9.5,6.2,28,16,35.8
			c9.9,7.8,37-2.5,52.6-8.6c15.6-6.2,19.7-18.9,14-31.3c-5.8-12.3-11.9-15.2-14.8-22.6C1413.9,468.6,1407.9,468.3,1407.9,468.3z"/>
		<path class="st4" d="M1423.8,524.4c-0.8,3.2,4.4,28.2,11.1,48.4c6.6,20.2,8,48.4,7.1,59.7c-0.9,11.3,6.2,11.7,8,26.8
			c1.8,15-8.9,39.5-24.3,22.5c-15.5-16.9-36.2-49.7-44.6-79.8c-8.4-30.1-19.9-56.5-17.7-75.3
			C1365.5,507.9,1424.3,522.5,1423.8,524.4z"/>
		<path class="st4" d="M1445.1,658.3c0,0,12.4,1.4,19.9,16.4c7.5,15,13.9,27.9,11.6,40.6c-2.2,12.7,0.8,13.4,0.8,28
			c0,14.6,28.6,122.7,28.6,122.7s-17.5-3.7-23.7-2.8c-6.2,0.9-13.2,0.9-13.2,0.9s-10.3-82.7-20.4-110.9
			c-10.2-28.2-24.3-61.1-29.7-84.5C1413.6,645.1,1445.1,658.3,1445.1,658.3z"/>
		<path class="st4" d="M1508.1,874.8c-1.1,7.3-1.2,9.9-1.2,9.9l-24.1,2c0,0,1.8-5.3-0.7-4c-2.5,1.2-4.1,1.7-6.4,3.7
			c-2.3,1.9-28.8-1.9-31.1-2.2c-2.3-0.3-1.9-4-0.7-5c1.2-1,18.9-6.3,23.3-8c4.4-1.7,13-12.1,16.3-18.5
			C1486.7,846.2,1510.7,857.6,1508.1,874.8z"/>
		<path class="st7" d="M1362.8,333.1c0,0-13.9,31.6-16.4,43.6c-2.5,12-0.6,54.3-0.6,60.6c0,6.3,2.5,26.5,3.2,34.1
			c0.6,7.6,1.9,33.5,0.6,36.6c-1.3,3.2-6.9,12.6-6.9,12.6s-8.8-45.5-9.5-49.3c-0.6-3.8-5.1-60.6,2.5-89
			C1343.3,353.9,1363.5,317.3,1362.8,333.1z"/>
		<path class="st4" d="M1290.8,327.1c0,0,8.4-4.3,23-1.7c14.6,2.6,31.6,5.8,38.6,6.1c7,0.3,32.3-2.3,42.3,1.5
			c10,3.8,28.2,25,20,34.9c-8.2,9.9-31.8,10.6-44.6,6c-12.8-4.6-39.7-2.2-53.8-9.1c-14-6.9-41-16.1-44.4-18.5
			C1268.4,344,1290,325.9,1290.8,327.1z"/>
		<path class="st4" d="M1405.1,326.8c1.9,0.6,15.7,4.8,17.7,8.8c18.9,37.9,3.2,63.8,3.2,63.8c-9.5,27.2-17.7,35.4-14.5,49.3
			c3.2,13.9,57.5,80.4,59.4,84.2c1.9,3.8-12,8.6-17.7,11.8c-5.7,3.2-59.4,0.6-61.9,1.9c-2.5,1.3-41.7-153.4-25.9-195.8
			C1381.1,308.5,1405.1,326.8,1405.1,326.8z"/>
	</g>
	<g style="clip-path:url(#SVGID_00000121959277515477853590000013014841801319448747_);">
		<g>
			<polygon class="st8" points="1326.1,1294.7 906.6,1704.7 907.1,1294.5 			"/>
		</g>
		
			<rect x="1479.7" y="1281.9" transform="matrix(0.7151 -0.6991 0.6991 0.7151 -942.0391 1704.6965)" class="st8" width="280.8" height="1452.1"/>
	</g>
	<g style="clip-path:url(#SVGID_00000121959277515477853590000013014841801319448747_);">
		<g>
			<g>
				<path class="st4" d="M832.2,1867.1c-5.1,1-12.7,2.5-17.3,0c5.3-14.4,9.1-27.7,6.9-31.1c-3.8-5.8,15-8.2,20-26.1
					c0,0,20.5,4.2,21.4,11.9c0.9,7.7-21.8,26.8-26.7,38.2C834.7,1864,836.2,1862,832.2,1867.1z"/>
				<polygon class="st4" points="860.4,1819.7 865.9,1823.9 847.1,1848.6 839.5,1847.2 				"/>
			</g>
			<path class="st4" d="M832.2,1867.1c0,0-3.5,3.5-13.8,3.5c-10.4,0-17.3,0-17.3,0s0-3.5,3.5-6.9c3.5-3.5,20.7-6.9,20.7-10.4
				C825.3,1849.8,832.2,1867.1,832.2,1867.1z"/>
		</g>
		<g>
			<path class="st1" d="M414,1373.9c-0.8,0.5-1.2,3.2,1.5,4.8c2.7,1.6,2.6,1.3,5.3,2.3c2.7,1-1.8-0.7-2.7-0.3
				c-0.9,0.4-0.8,2.5,1,3.7c1.8,1.2,1.6,1.4,2.3,2.1c0.7,0.6,2.6,0.5,6,1.1c3.4,0.6,6.3,0.9,8.4,1.9c2.1,1-0.2,0.9,1.1,1.7
				c1.3,0.8-2.9,0.7-4.9,1.3c-2,0.6-2.6-0.3-2.6,0.9c0,1.2-0.3,2.5,2.3,2.9c2.7,0.4,2.4-0.3,5.8,0.7c3.4,1,3.5,1.5,7.6,1.3
				c4.1-0.2,3.2-0.7,8.3-1.3c5.1-0.6,7.2-0.8,11.1-1.6c3.9-0.8,0.5-5-5-7.6c-5.6-2.6-20.5-6.4-25.8-7.2c-5.3-0.8-12.5-4.4-15.4-5.6
				C415.6,1373.9,414,1373.9,414,1373.9z"/>
			<path class="st3" d="M414.2,1374.5c1,1.4,1.5,1.9,4.3,2.9c2.8,1,3.4,1.3,3.8,1.3c0.4,0-1.7,1.5-0.7,2.2c1,0.7,2.3,0.2,5.6,0.7
				c3.3,0.5,6.1,1.2,9.9,2.2c3.8,1.1,4.3,0.2,8.8,2.3c4.5,2.1,9,4.2,13,4.9c4,0.7,6.5-1.6,0.2-4.6c-6.3-3-18.8-5-24.6-6.2
				c-5.8-1.2-5.1-1.2-9.3-3C421.1,1375.5,412.5,1372.1,414.2,1374.5z"/>
			<path class="st3" d="M418.8,1381.4c-2.5-0.1,3.3,0,6.3,1.6c3,1.5,4.6,2.3,6.5,2.7c1.9,0.4,0.4-0.6-3.1-2.3
				C424.9,1381.7,420.6,1381.5,418.8,1381.4z"/>
			<path class="st3" d="M429.7,1394.2c1.1,1.8,1.9-1.3,4.6-1c2.7,0.4,3.3,0.9,4.3,0.4c1-0.6-0.2-1.1-1.8-1.8
				C435.4,1390.9,428.3,1391.8,429.7,1394.2z"/>
		</g>
		<g>
			<path class="st9" d="M713.1,1552.5c-5,14.7-43.6,53.5-74.3,74.5c-30.7,21-35.6,21.6-50.1,44.8c-14.5,23.2-36,20.5-35.3-0.8
				c0.6-21.3,36-78.8,36-78.8c19.5-25.6,30.2-52.9,53.3-70.2C661.7,1507.5,715.9,1544.2,713.1,1552.5z"/>
			<path class="st9" d="M517.9,1359.7c0,0,0.8,9,39.9,21.2c26.7,8.3,38.4,21.4,63.9,20.6c25.5-0.8,45.9-28.7,25.5-36.1
				c-19.6-7.1-29.2-5-54.8-6.5c-25.7-1.6-37.9-9.4-47.3-13.9C535.9,1340.3,513.3,1343.2,517.9,1359.7z"/>
			<path class="st3" d="M620.5,1347.1c-0.5,1.7,12.4-3.6,14.6,4.3c2.2,7.9,2.6,9.6,2.6,10.5c0,0.9,26.9-13,27.3-11.3
				c0.4,1.7-2.8-6.4-9.6-21.1C646,1308.9,623.6,1336,620.5,1347.1z"/>
			<path class="st1" d="M614.9,1289.4c-7.5,3.2-10.9,20.7-10.8,22.7c0.1,2-0.4,18.4-1.1,20.2c-0.8,1.8,1.5,1.1,3.9,7.5
				c2.4,6.5,3.7,10.1,5.3,11.8c1.5,1.6,8.9,0.6,17.5-11.1c8.5-11.7,9.2-15.2,9.2-15.2s2.3,0.2,12.4,0.2c10.1,0,10.5,2.1,12-11.8
				c1.5-13.9-5.2-30-13.7-33.5C640.9,1276.7,619.7,1287.4,614.9,1289.4z"/>
			<path class="st4" d="M607.4,1299.6c0,0-4.7-1.7-6.8-2.8c-2.1-1,2.8-5.6,6.2-7.5c3.3-1.9,5.8-4.4,18.8-7.7c13-3.3,22-6.7,29,0.3
				c7,7.1,4.4,4,9.8,12.1c4.2,6.3,2.6,10.8,1.8,16.6c-0.8,5.8,1.3,7.2-3.8,17.4c-4.8,9.7-2.3,6.1-1.5,10.1c0.8,4-7.3-2.2-9.7-8.6
				c-2.4-6.5-11.3-3-12.5-3c-1.1,0.1,6.9-9.6,6-15.3c-0.9-5.7-9.7-3.5-11.4-2.5c-1.7,1-0.1-10.9-4.8-12.9
				C624,1293.7,609.6,1292.2,607.4,1299.6z"/>
			<path class="st9" d="M520.7,1329.4c1.5-1.5,14.8-10.9,25.4-4.5c0,0,0.7,15.3,1.6,25.1c1,9.7-26.2,18-29.8,9
				C514.3,1350,513.2,1336.7,520.7,1329.4z"/>
			<path class="st1" d="M525,1326.1c-3-4.7-2.7-7.5-6.1-9.1c-3.4-1.6-1.9-8,3.7-9.5c5.7-1.5,4.5-6.5,9.9-4.7
				c5.4,1.8,6.3-3.6,8.7,0.1c2.5,3.6,6.4,0.5,8.2,4.8c1.8,4.3,1.5,6.3-3.2,14.5C541.6,1330.3,525,1326.1,525,1326.1z"/>
			<path class="st6" d="M635.8,1354.1c0.1,1.7-19.7,47.5-20.8,69.4c-1.1,21.9,16.4,50.4,20.2,77.1c4.9,34.4,63.4,42.5,64.9,18.6
				c1.3-19.2-33.8-165.4-36-174.4c-1.5-6.3-25.2,14.7-26.5,16.2C637.2,1361.5,635.8,1354.1,635.8,1354.1z"/>
			<path class="st9" d="M553.8,1673.4c0.6,1.9,9.2,78.4,14.5,104.1c5.3,25.6,1.6,69.6,1.6,69.6s28.9,2.3,35.8,0.7
				c6.9-1.6-7.8-33.2-6.9-57.3c0.9-24.1-3.1-32.4,2.2-59.4c5.3-27.1-8.9-27.6-20.3-53.4C569.2,1651.6,553.8,1673.4,553.8,1673.4z"/>
			<path class="st4" d="M681.7,1666.5c0,0-3.1,24.8,16.3,42.4c19.4,17.5,121.9,122.6,121.8,125.6c-0.1,3.1,32.5-21.1,32.5-21.1
				s-29.2-13.8-42.8-38.3c-13.6-24.5-29.2-40.8-40-61.2c-10.8-20.4-55.8-11.5-58.8-40.2C707.6,1645.1,681.7,1666.5,681.7,1666.5z"/>
			<path class="st9" d="M575.6,1840.9c1.4,3.3-5.2,5.5-7.8,8.4c-2.6,2.9-19.4,7.8-24.3,9.1c-5,1.2-8.5,1.8-8.5,1.8s-2.5,4.7,0.8,7.2
				c3.3,2.5,6.4,2.5,14.2,3.1c7.8,0.6,24.4-1.3,27.8-1.7c3.5-0.3,8.9-3.2,9.7-3c0.9,0.2,1,3.1,1,3.1s17.7,0.5,18.9-1.8
				c1.2-2.2-0.7-19-2.4-22.8C603.4,1840.5,575.2,1840,575.6,1840.9z"/>
			<path class="st4" d="M606.4,1310.7l-163.8-4.1c0,0-0.3,16.1,0.4,18.1c0.7,2,163.3-7.8,163.3-7.8L606.4,1310.7z"/>
			<path class="st4" d="M639.4,1533.9c1.1,14.3,26,73,27,93.4c1,20.4,18.2,77.7,36.1,82.5c18,4.8,11.3-16,16.5-38.3
				c5.2-22.2-0.3-47.7,0.3-80.7c0.7-33,19.7-69.6-12.1-71.3C663.1,1517.1,637.8,1513.1,639.4,1533.9z"/>
			<path class="st1" d="M549.6,1307.6c0,0,3.3,4,0.8,6.9c-2.5,2.9-3.7-2.5-6.6-7.2c-3-4.7-0.7,1.5-1.7,6.6c-1,5.1-3.3-4-6.6-7.6
				c-3.3-3.6,0.1,7.6-0.6,10.2c-0.7,2.6-4.3,3-5.5-2.8c-1.2-5.8-4.1-7.2-4.4-6.1c-0.4,1.1,0.1,6.5-1.8,4.8c-1.8-1.8-1.5-3.3-1.9-4.3
				C520.8,1306.8,544.1,1303.3,549.6,1307.6z"/>
			<path class="st4" d="M661.5,1340.7c0,0,45.2-1.3,64.2,41.1c3.9,8.8,2.5,138.1-9.5,169.7c-12,31.6-5.2-43-20.6-83.8
				c-15.3-40.8-55.3-35.1-49.8-64.7C651.4,1373.5,661.5,1340.7,661.5,1340.7z"/>
			<path class="st4" d="M646.2,1411.5c0.1,1.8,17,52.7,39.6,94.5c22.6,41.7,120.8,48.7,91.7,80.1c-0.6,0.6-0.5-0.8-0.5-0.8
				s29.7-7.7-5.5-50.8c-35.2-43.1-66-79.7-88.4-100.4C660.7,1413.3,646.2,1411.5,646.2,1411.5z"/>
			<path class="st10" d="M653.4,1427.4c-0.9-1.7,31,11.4,61,42.1c29.9,30.7,69.9,71.7,71.8,90.9c0,0-28.9-33.7-51.8-52.6
				C711.5,1488.8,654.7,1429.7,653.4,1427.4z"/>
			<path class="st7" d="M640.2,1363.1c0,0-0.4,11.4-2.8,13.3c-2.3,1.9-7.8-7.5-7.8-7.5l5.1-8.2L640.2,1363.1z"/>
			<path class="st7" d="M635.8,1372.9c0,0,10.9,21.9,24,44.4c13.1,22.6,94,64.1,94,64.1L764,1507l-16-7.3c0,0-85.7-58.7-94.6-72.3
				c-8.9-13.6-24.9-55.2-23.8-58.5C630.7,1365.7,635.8,1372.9,635.8,1372.9z"/>
			<path class="st4" d="M705.3,1386.4c-1.3,1-29.1,21.9-51.7,26.3c-22.6,4.4-59.3,17.5-77.6,12.4c-18.2-5.1-27.4-24.2,6.7-34.1
				c34-9.8,58-11.6,68.1-20C705.6,1325.1,705.3,1386.4,705.3,1386.4z"/>
			<path class="st4" d="M567.2,1397l-51.2-11.6c-34.7-1.9-58.1-3.3-58.1-3.3s-7.8,12.3-2.7,16.1c5.1,3.7,99.5,26.9,120.1,28.4
				C595.9,1428.1,597.2,1407.7,567.2,1397z"/>
		</g>
	</g>
	<g style="clip-path:url(#SVGID_00000121959277515477853590000013014841801319448747_);">
		<g>
			<g>
				<g>
					<polygon class="st11" points="1798.7,886.3 1318.3,1355.9 1318.9,886.1 					"/>
				</g>
			</g>
			<path class="st11" d="M2503.3,1867.9c-0.2,35.4-2.7,70.8-5.7,106.1c-3.5,41.7-7.4,83.2-9.4,125c-2.9,58.8-3.5,117.6-6.9,176.4
				c-0.2,3.5-0.4,7.2-0.6,10.9L1439.2,1221l229.9-224.8l834,853.1C2503.3,1855.6,2503.3,1861.8,2503.3,1867.9z"/>
		</g>
	</g>
	<g style="clip-path:url(#SVGID_00000121959277515477853590000013014841801319448747_);">
		<g>
			<polygon class="st12" points="2189.4,1614.9 1843.4,1953.2 1843.8,1614.7 			"/>
		</g>
		<path class="st12" d="M2488.2,2099c-2.9,58.8-3.5,117.6-6.9,176.4c-1.7,28.6-1.6,65.6-28,83.7c-6.4,4.4-13.3,7.7-20.5,10.7
			L1930.5,1856l165.6-161.9l392.3,401.2C2488.3,2096.5,2488.2,2097.8,2488.2,2099z"/>
	</g>
	<g style="clip-path:url(#SVGID_00000121959277515477853590000013014841801319448747_);">
		<g>
			<polygon class="st13" points="974.7,1865.1 465.4,2362.9 466,1864.9 			"/>
		</g>
		<path class="st13" d="M1173.3,2327.3c-36.6,10-75.3,11.9-113,13.5c-18.2,0.8-36.4,1.3-54.6,2c-18.6,0.7-37.2,2.5-55.9,3.2
			c-49.4,1.9-98.9,0.1-148.3,1.8c-25.5,0.9-51.2,2.6-76.6,6.5l-131.3-134.3l243.8-238.3l337.5,345.2
			C1174.3,2327,1173.8,2327.1,1173.3,2327.3z"/>
	</g>
	<g style="clip-path:url(#SVGID_00000121959277515477853590000013014841801319448747_);">
		<path class="st9" d="M2042.2,1594.8c0,3.3,5.5,8.1,4.8,14.4c-0.8,6.3,0.3,6.3,0.3,6.3s-14.9,0.5-17.1,0c-2.3-0.5-1.3-4.3-2.8-3
			c-1.5,1.3-13.1,4-18.6,3.8c-2.8-0.1-13.4-0.3-12.8-3c0.5-2.8,14.1-5.8,16.4-7.3c2.3-1.5,17.1-10.3,18.1-15.1
			C2031.4,1585.9,2042.2,1591.5,2042.2,1594.8z"/>
		<path class="st9" d="M2008.4,1431.2c-3.3,9.9,7,50.4,10.5,70.5c3.5,20.2,7.5,62.7,7.1,79.4c-0.4,16.7,12.7,25.3,16.2,13.3
			c3.5-12-2-78.3,4.9-105c7-26.7-2.7-48.4-10.9-64.3C2028.2,1409.1,2008.8,1430,2008.4,1431.2z"/>
		<path class="st3" d="M2022,1073c0.6,1.7,6.4,11.3,8.7,15.5c2.3,4.2-14.9,8.7-17.2,11c-2.3,2.3-13.2-15.1-22.1-25.1
			C1982.5,1064.3,2019.9,1066.6,2022,1073z"/>
		<path class="st4" d="M2079.3,1227.2c2.1-1.7,35.3,27.7,32.9,49.3c-2.4,21.6-10.9,26.5-13.7,29.8c-2.9,3.3-43.4-1.1-54.9-11.2
			c-11.5-10.1-25.6-34.4-24.9-37.5c0.7-3.1,2-2.9,2-2.9S2053.5,1248.1,2079.3,1227.2z"/>
		<path class="st4" d="M2056.9,1424.8c0.2,2.2,24.8,16.7,26.7,32.6c1.9,15.9-1.2,32.5-0.4,50.4c0.8,17.8,5.4,53.9,6.2,64.3
			c0.8,10.5,1.2,24-3.9,28.3c-5,4.3-13.5-0.6-13.9-12.7c-0.4-12-10.6-62.5-14.4-78c-3.9-15.5-26.7-69.8-29.1-84.1
			C2025.9,1411.2,2056.1,1417.8,2056.9,1424.8z"/>
		<path class="st4" d="M2088.5,1594.3c0,3.5,5.9,8.5,5.1,15.2c-0.8,6.7,0.3,6.7,0.3,6.7s-15.8,0.5-18.2,0c-2.4-0.5-1.3-4.5-2.9-3.2
			c-1.6,1.3-13.9,4.3-19.8,4c-2.9-0.1-14.2-0.3-13.6-3.2c0.5-2.9,15-6.1,17.4-7.8c2.4-1.6,18.2-11,19.2-16
			C2077,1584.9,2088.5,1590.8,2088.5,1594.3z"/>
		<path class="st4" d="M1905.7,1089.2c-5.7-6.8-7.2-10.7-18.1-18.1c-10.8-7.5-32.7-28.3-40.2-38.6c-7.5-10.3-6.9-7.1-6.9-7.1
			s-10.1,4.3-11.4,4.9c-1.3,0.5-6.9-2.9,2.8,10.9c9.8,13.8,34.9,41.5,40.9,48.5c6,7,31.9,23.9,31.9,23.9
			C1917.8,1117.3,1905.7,1089.2,1905.7,1089.2z"/>
		<g>
			<path class="st1" d="M1819.5,998.8c0.9,0.8,6.9,3.9,6.9,3.9s-0.7-0.8-2.6-2.5c-1-1-2.4-3.5-3.4-6.1c5.9,2.1,11.9,4.2,16.8,8.1
				c1.8,2.9,3.6,5.8,3.6,7.1c0.1,2.2,3.6,15.6,4.6,18.8c5,14.5-4.6,11.5-11,5.9c-6.5-5.6-0.8-14-2-16.4c-1.2-2.4-4.4-1.1-10.3-2.8
				c-5.9-1.7-5.2-2.2-5.3-3.7c-0.1-1.5-0.9-2.1,1.6-2c2.4,0,7.4,0.4,7.4,0.4s-8-4.8-9.5-5.9c-1.5-1.1-1.1-3.2-0.4-4.8
				C1816.6,996.8,1818.6,997.9,1819.5,998.8z"/>
			<path class="st3" d="M1817.2,1000.7c-0.8-1.9,7.1,6.1,9.8,7.6c2.7,1.6,6.1,2.5,6.1,2.5s-8.9-1.7-10.7-2
				C1820.4,1008.5,1820.3,1008,1817.2,1000.7z"/>
			<path class="st3" d="M1827,1015c5.1,1,7.8-1.2,8.2,0.7c0.3,1.9,1.1,3.3,2.1,7.8c1,4.4,1.2,6.3,2.9,9.2c1.7,2.9,6.4,6,7.3,8.2
				c0.9,2.1-1.2,3.5-5.6-1c-4.4-4.5-6.4-6.5-10-11.8c-3.6-5.3-6.5-13.4-6.5-13.4L1827,1015z"/>
			<path class="st9" d="M2031.3,1095.5c-7.6-1-17.3-11.8-31.9-9.1c-14.6,2.8-49-0.2-60.3-4.5c-11.2-4.3-26.6-9.8-28.9-0.2
				c-2.3,9.5-0.8,14,8.5,19.9c9.3,6,40,10.8,55.4,14.2c15.4,3.4,38,12.5,46.7,8.9C2029.5,1121.2,2040.1,1096.7,2031.3,1095.5z"/>
			<path class="st9" d="M1923.9,1080.3c-7-5.4-9.3-8.9-21.5-14c-12.2-5.1-37.9-20.8-47.4-29.4c-9.5-8.6-8.2-5.5-8.2-5.5
				s-8.9,6.4-10.1,7.1c-1.2,0.8-7.4-1.4,5,10.1c12.4,11.5,42.8,33.3,50.1,38.9c7.3,5.6,36.2,16.7,36.2,16.7
				C1941.6,1105.2,1923.9,1080.3,1923.9,1080.3z"/>
		</g>
		<g>
			<path class="st1" d="M1828.5,1029.6c-2-1.7-10.8-8-12.4-8.6c-1.6-0.6-5.6-6.8-7.8-8.9c-2.2-2.1-4.8-3.4-5.2-4.9
				c-0.4-1.5-0.1-2.4,1.6-1.6c1.7,0.8,4.8,3,4.8,3s-4.5-6.2-5.9-7.8c-1.3-1.6-0.4-3.1,1.6-3c2,0.1,6.7,4.7,7.6,6.8
				c0.9,2.1,1.3,2.8,1.3,2.8s-1-5.8-1.5-6.7c-0.4-0.9-0.8-2.9,0.4-3c1.3-0.2,2.8,0.1,3.3,1.6c0.5,1.5,2.5,9.4,2.5,9.4s0.6-4.2,1-6.3
				c0.4-2,0.7-1.3,1.7-0.8c1,0.5,1.5,0,1.6,5.3c0.2,5.3-1.4,7.7,0.2,9.3c1.5,1.6,8.4-1,11.2,5.7
				C1837.5,1028.7,1837.9,1037.4,1828.5,1029.6z"/>
			<path class="st3" d="M1804.7,1005.6c-0.9,0.9,5,4.3,6.6,6.1c1.6,1.8-2-3.9-3-5.2C1807.2,1005.2,1805,1005.4,1804.7,1005.6z"/>
			<path class="st3" d="M1805.2,998.9c1.8,1.4,4.8,6.4,6.1,7.7c1.2,1.3,1.9,2.1,1.9,2.1s1.9,3.2,2.7,5.1c0.8,1.9-0.4-2.9-1.8-6.4
				c-1.4-3.5-3-6-4.9-7.7C1807.4,997.9,1805.2,998.9,1805.2,998.9z"/>
			<path class="st3" d="M1814.4,999.2c-1.2-1.2,3,7.4,3.6,10c0.6,2.6,0.7,5.7,0.7,5.7s0.4-7.8,0.5-9.5
				C1819.3,1003.9,1819,1003.7,1814.4,999.2z"/>
			<path class="st3" d="M1822.8,1011c-0.2,4.5-2.2,6.2-0.9,7c1.3,0.7,2.2,1.7,5.1,3.7c2.9,2,4.2,2.6,6,4.7c1.8,2.1,3.1,6.8,4.5,8.1
				c1.4,1.3,2.7-0.2,0.3-4.9c-2.4-4.8-3.4-7-6.5-11.3c-3.1-4.3-8.3-8.7-8.3-8.7L1822.8,1011z"/>
		</g>
		<path class="st9" d="M2023.4,1269.8c-4.4,15.3-9.6,44.3-12.7,64.4c-3.1,20.1-12,100,0,106.2c12,6.2,19-12.9,25.6-32.3
			c6.6-19.4,31.8-94.6,39.9-119C2084.4,1264.8,2029.2,1249.7,2023.4,1269.8z"/>
		<path class="st1" d="M2048.3,1044.8c-0.7,4.4-5.8,16.2-9.9,20.5c-4.1,4.3-11.6,6.6-12.4,8.8c-0.8,2.1-8.9-1-13.9-1.2
			c-5-0.2-12.7-0.3-13.2,2.6c-0.5,3-8.8,2.3-11.1,2.3c-2.3,0-1.6-19.8-1.3-25.9c0.3-6.1,8.3-25.1,12.6-29.9
			c4.3-4.8,16.7-9.2,27.9-6.1C2038.3,1019,2050.5,1032.1,2048.3,1044.8z"/>
		<path class="st6" d="M2033,1085.7c-6.6-2.4-21.6-2-25.3,2.2c-3.7,4.2-10.4,10.8-14.8,22.9c-4.4,12.1-18.7,43.4-19.2,45
			c-0.4,1.5,5.7,22,16.5,25.8c10.8,3.8,10.1,19.6,13,30.4c2.9,10.8,12.6,39.7,18.3,43.9c5.7,4.2,51.8-19.8,56.4-26.9
			c2.6-4-8.8-15-14.1-24c-5.3-9-13.4-31.1-12.8-43.6c0.7-12.6,4.2-27.1-0.4-41.7C2046,1105.1,2033,1085.7,2033,1085.7z"/>
		<path class="st4" d="M2101.4,1300.4c-0.8,6.5-10.9,22.5-18.6,46.9c-7.8,24.4-16.7,41.1-21.7,55c-5,14,1.6,12.4-5.4,27.1
			c-7,14.7-31,3.9-30.6-9.3c0.4-13.2,4.7-41.1,7.7-63.2c3.1-22.1,1.2-61.6,3.5-77.1C2038.6,1264.4,2103,1288.4,2101.4,1300.4z"/>
		<path class="st4" d="M2023.2,1105.4c-7.6-0.7-17.7-11.2-32.2-7.9c-14.5,3.3-49,1.6-60.4-2.3c-11.4-3.8-26.9-8.8-28.8,0.8
			c-1.9,9.6-0.3,14,9.2,19.6c9.5,5.6,40.4,9.3,55.8,12.2c15.5,2.9,38.5,11.1,47,7.2C2022.3,1131.2,2032,1106.3,2023.2,1105.4z"/>
		<path class="st4" d="M2016.5,1049.1c-2.3,0-6.2,0.7-7,3.7c-0.9,3-4.6,0.9-4.6,0.9s3.3-7,4-10.7c0.7-3.7-7-16.4-6.7-20.6
			c0.4-4.2-6.7,6-7.2,6.9c-0.5,0.9-5.3-6.2-5.3-6.2s12.7-5.8,17.9-9.3c5.3-3.5,15.8-3.7,25,1.6c9.1,5.3,14.1,13.7,17.6,19.9
			c3.5,6.2,1.6,7.2-2.5,17.9c-4,10.7-6.9,15.8-12.1,19.3c-5.3,3.5-6.5,3.3-6.5,7.2c0,3.9-6-4.2-6-4.2c-2.6-1.8-7.4-9-7-9.7
			c0.4-0.7,7-9.7,5.1-13.5C2019.3,1048.4,2016.5,1049.1,2016.5,1049.1z"/>
		<path class="st4" d="M2048.2,1033.7c0,0,16-5.6,19-7c3-1.4,8.6,2.3,11.4,6c2.8,3.7,17.2,26.7,17.8,27.1
			c0.5,0.4-17.4-8.6-23.6-12.5c-6.2-3.9-25.3-2.3-26-4C2046,1041.4,2048.2,1033.7,2048.2,1033.7z"/>
		<path class="st4" d="M2023,1083.3c0,0-15.7,10.5-16.8,18.9c-1.1,8.4,4.2,64,16.8,94.5c12.6,30.4,92.4,102.9,92.4,112.3
			c0,9.4,52.5-55.6,49.3-54.6c-3.1,1.1-23.1-17.8-35.7-28.3c-12.6-10.5-51.4-17.8-56.7-50.4c-5.2-32.5-11.5-56.7-17.8-73.5
			c-6.3-16.8-13.6-13.6-13.6-13.6l-3.2-11.5L2023,1083.3z"/>
	</g>
	<g style="clip-path:url(#SVGID_00000121959277515477853590000013014841801319448747_);">
		<g>
			<path class="st3" d="M960.1,1013.4c0.4,1.4,3.2,2.5,0,3.3c-3.2,0.8-6.5,0.5-8.2,0.1c-1.7-0.4-1.1-1.6-1.1-1.6L960.1,1013.4z"/>
			<path class="st1" d="M974.7,1003.1c-0.2,0.6-0.3,2.9-2.6,4.7c-2.4,1.8-6.6,5.4-9.7,6.4c-3.1,1-8.1,2.4-9.3,1.8
				c-1.2-0.6-2.2-1.7-1.1-2.4c1.1-0.7,6.1-3,6.1-5.1c0-2.1-1.3-2.7-3.1-2c-1.7,0.8-4.1,1.4-3.9,3.4c0.1,1.9-0.1,0.7,0.4,2
				c0.5,1.3,0.6,4.2-1.3,4.4c-1.9,0.1-6.3-3.2-6.8-5.4c-0.5-2.2,3.8-5.1,4.2-7.1c0.5-2-0.4-2.7,0.8-3.9c1.2-1.1,4.5-1.6,9.3-2.8
				c4.8-1.2,9.8-3.7,11.4-4.8C970.7,991.2,975.6,999.7,974.7,1003.1z"/>
			<path class="st3" d="M964.7,1005c-1.1-1.1-3.8-1.3-6.5-0.8c-2.8,0.6-4.6,1-5.7,2.6c-1.1,1.6-1.7,2.1-1.5,3.6
				c0.2,1.5,0.3,2.1,0.3,2.1s1.4-3.6,2.5-4.6c1-1,3.6-1.2,3.9-0.3c0.3,0.9,0.8,1.3-0.6,2.1c-1.5,0.8-3.3,2.9-3.3,2.9
				s1.8-0.5,5.1-2.1C962.1,1009.2,966.6,1007,964.7,1005z"/>
			<path class="st3" d="M955.6,998.5c-1.9,0.7-4.7,2.8-5,4.4c-0.3,1.6-0.3,2-1.3,2.7c-1,0.7-2.1,1.1-2.8,2.9c-0.7,1.8-1.7,2.1,0,3.8
				c1.6,1.7,0.6,2.6,2.6,3c2,0.3,0.4,0.8,0.4,0.8s-0.5,0.1-3.1-2.3c-2.6-2.3-2.9-2.8-2.6-3.8c0.3-1,4.7-5.3,4.7-5.3
				s-0.7-3.2,0.6-4.3C950.2,999.3,955.6,998.5,955.6,998.5z"/>
		</g>
		<path class="st4" d="M1023.7,885.9c-0.7,7.2-5.8,21.5-7.2,30c-1.4,8.5-0.9,18.7-4.7,30.8c-3.8,12.1-12.1,24.2-16.7,32.2
			c-4.6,8-18.3,25.6-18.3,25.6l-9.8-10.8c0,0,12.5-29.6,17-47.2c4.5-17.7,14.5-59.4,19.5-71.6C1008.6,862.7,1028,840.4,1023.7,885.9
			z"/>
		<path class="st9" d="M1028.9,988.2c-3.6,10.7-0.3,48.2-1.6,65.4c-1.3,17.1-2.9,56.5,1.9,68.9c4.8,12.4,6.3,30.8,13.6,28.9
			c7.3-1.9,21.4-30.5,21.7-46c0.3-15.6,1.8-77.1,1.5-93.6C1065.7,995.2,1031.5,980.6,1028.9,988.2z"/>
		<path class="st9" d="M1055,1135.4c0,0,13.8,17.2,14.4,29.3c0.6,11.6-3,22.1-5.3,41.7c-2.2,18.7-5.4,39.3-6.4,52
			c-1.8,24.2-8.7,18.2-15.9,19.7c-9.7,2-2.7-7.9-6.7-40c-2-16.4-2.2-100.9-5.4-114.3C1026.7,1110.4,1056,1133.5,1055,1135.4z"/>
		<path class="st3" d="M1040.5,789.7c0.4,0.8-3.7,14,0,19.1c3.7,5.1-26.3,30.4-27.1,32.1c-0.8,1.7-8.4-34.9-10.1-39.4
			C1001.6,797.1,1035,778.2,1040.5,789.7z"/>
		<path class="st1" d="M1005.8,756.2c-2.7,1.9-7,13.4-10.2,22.9c-3.2,9.5-1.3,17.8-1.3,17.8s0.8,12.3,1.2,14.3
			c0.4,2,23.7-3.3,24.6-3.5c0.9-0.1,5.5-9,6-10.7c0.5-1.7,20.3,4.4,24.5-10.6c4.2-15,0.4-22.7-5.8-27
			C1038.5,755.1,1019.4,746.5,1005.8,756.2z"/>
		<path class="st6" d="M1042.4,810.6c10.2,4,21.2,15.3,24.4,24.9c3.3,9.6,4.5,15.3,7.3,30.9c2.8,15.6-3.2,28.3-4.6,42
			c-1.4,13.7,11.2,54.5,12.8,58.9c1.5,4.4-26.1-4.3-38.4-0.9c-12.3,3.4-23.6,3.9-24.5,2.7c-0.8-1.2-8.3-53.9-13.4-62.4
			c-5.1-8.5-14.3-11.7-14.2-28.2c0.2-16.6,12.9-47.2,13.9-50.5C1006.9,824.7,1042.4,810.6,1042.4,810.6z"/>
		<path class="st7" d="M1008.1,829.4c1.9,0.1,3.6,8.7,2.5,9.6c-1,0.9-8.6,4.8-8.8,5.5c-0.2,0.7-1.3-5.8-1.3-6.5
			C1000.5,837.3,1004,829.1,1008.1,829.4z"/>
		<path class="st7" d="M1004.6,841.3c0,0-4.2,13.3-7.6,29.1c-3.3,15.8-3.1,38.8-2.3,47.9c0.8,9,3.5,46.3,3.5,46.3
			s-11.6,21-12.8,21.6c-1.2,0.6-6.5-28-6.4-34.3c0.1-6.3,11.2-66.5,14.3-82.4c3.1-15.9,7.4-28.4,8.7-30.9
			C1003.3,836,1004.6,841.3,1004.6,841.3z"/>
		<path class="st4" d="M1033.1,780.7c-2.8-1.3-7.5,3.3-8.9,6.6c-1.5,3.3-3.9,1-3.9,1s3.1-4.7,3.6-9.3c0.5-4.7,0.3-13.5-8-13.3
			c-8.3,0.3-13.4-1.3-13.4-1.3l0.7-12.2c0,0,7.2,2.5,19.5-0.9c12.3-3.4,24.9,1.2,27.6,11.5c2.7,10.3,3.8,19,0.8,25.7
			c-2.9,6.6-7.8,9.9-9,15c-1.2,5.1-0.5,4.9-1.2,5.1c-0.7,0.2-0.9,2-5.2-0.8c-4.3-2.8-9.5-7.9-7.3-10.9
			C1030.6,793.7,1039.4,783.7,1033.1,780.7z"/>
		<path class="st4" d="M1081.2,950.5c3.2-3.1-0.9-1,7.8,4.9c8.7,5.9,14.4,19.3,14,27c-0.3,7.8-6.4,25.7-9.9,32.5
			c-3.5,6.8-25.6,8.1-32.2,5.1c-6.6-3-17-4.3-22.8-11.7c-5.8-7.4-5.4-13.4-11.3-19.6c-5.9-6.3-8.4-17.7-8.6-18.4
			C1018.2,969.7,1067.5,963.5,1081.2,950.5z"/>
		<path class="st4" d="M1092.3,997.3c1.6,4.8,7.7,20.1,12.3,38.9c4.5,18.8,2.5,41.7,4.3,54c1.8,12.3,7.4,20.1,11,30.1
			c3.5,9.9-10.6,27.8-18.7,25.1c-8.1-2.7-21.8-20.2-25.5-36.7c-3.7-16.4-18.4-38.5-24.8-52.7c-6.4-14.2-12.7-42.4-12.6-48.9
			C1038.4,1000.6,1087.6,983.7,1092.3,997.3z"/>
		<path class="st4" d="M1108.7,1127.4c0,0,32.7,16.5,38.1,30.2c5.4,13.7,11.7,29.5,19,45.1c7.3,15.6,33.3,45.6,33,46.9
			c-0.3,1.3-13.9,12.3-22.4,3.4c-8.6-8.9-24-28.7-34.5-42c-10.5-13.3-45.6-52.2-51.9-69.9C1083.6,1123.2,1109,1126.1,1108.7,1127.4z
			"/>
		<path class="st9" d="M1058.2,1276.7c0.7,1.3,1.9,8.2,1.3,13.2c-0.6,4.9-1,7.5-1,7.5l-18.4,0.5l-1.4-3.7c0,0-3.6-0.7-6.6,0.9
			c-3,1.6-11.9,1.7-18,1.5c-6.1-0.2-16.6-2.6-16.7-3.2c0-0.7,0-3.1,1-5.3c1-2.2,15.9-2.5,20.6-4.9c4.7-2.4,15.8-8.8,16.2-9.4
			c0.4-0.6,21.4-1.4,21.4-1.4L1058.2,1276.7z"/>
		<path class="st4" d="M1168.4,1286c2.2-1.7,7-3.5,10.9-6.7c-0.3-7.1-1.3-19.1-1.6-19.8c-0.4-0.8,9-23.8,9-23.8l5.3,0.4
			c1.7-0.1,9.5,2,14.3,5.2c4.8,3.2,7.3,4.9,7.3,4.9l-8.4,20.1l-4.5-0.4c0,0-2.5,3.5-2.3,7.6c0.1,3.6-3.2,11.6-6.1,17.9
			c0,0-4.5,5-8.1,5.2c-3.6,0.2-20.4-3.7-20.4-3.7S1165.8,1288.1,1168.4,1286z"/>
		<g>
			<path class="st1" d="M948.3,949.5c0,0,0.7,1.6,2.2,1.3c0,0-3.5,1.1-5.5,2.4c-2,1.3-2.1,2.1-0.7,3c1.4,0.9,5.1,1,5.7,0.6
				c0,0,0.8,1.3,2,2.4c1.2,1.1,2.9,1.1,2.9,1.1s0.6,0.9,2.9,2.4c2.3,1.4,3-0.1,3-0.1s2.5,1.3,4.1,2.1c1.6,0.8,3.1-0.9,5.6-2.7
				c2.5-1.8,3.2-5.1,7.3-7.6c4-2.5,14.5-8.7,8.1-10c-6.4-1.3-11.2,0.9-16-0.5c-4.8-1.4-4.8-1.4-4.8-1.4s-6.8,0.3-8,0.6
				c0,0-8.7,4.4-9.5,5.4C946.8,949.4,948.3,949.5,948.3,949.5z"/>
			<path class="st2" d="M948.3,949.5c0,0,0.6,1.1,2.2,1.4l4.9-2.9c0,0-2.5,1.1-3.9,1.2C950.1,949.3,948.3,949.5,948.3,949.5z"/>
			<path class="st2" d="M944.3,956.1c0.2,0.6,2.4,1,3.7,0.8c1.4-0.1,2-0.4,2-0.4s0.3,1,1.4,1.7c1.1,0.6-1.4-1.2-0.5-1.9
				c0.9-0.8,6.3-3.1,6.3-3.1s-0.4-1.7-3.8-0.7C949.9,953.6,944.3,956.1,944.3,956.1z"/>
			<path class="st2" d="M952.4,959.2c0,0,0.6-0.7,3-1.6c2.4-0.9,5.5-2.5,5.5-2.5s-2.9,3.5-0.4,3.3c2.4-0.1,7.9-2.9,13.6-5.7
				c5.8-2.8,9-3.7,5.5,0.2c-3.5,3.9-4.1,4.7-5.8,6.2c-1.7,1.6-8.5,4.8-8.4,5.1c0.1,0.3-1.7-0.1-3-0.1c-1.4,0-2.9-1.2-2.9-1.2
				s-1.7-0.1-3-0.6c-1.2-0.5-1.6-2.1-1.5-2.2C955,960.1,952.7,960.3,952.4,959.2z"/>
		</g>
		<path class="st4" d="M1081.2,941.9c0,0,17.2,17.2,23,28.7c5.7,11.5,28.7,43.1,28.7,43.1l-57.5,23c0,0-28.7-89.1-40.2-135.1
			c-11.5-46-11.5-66.1-11.5-66.1s11.2-28.1,17.1-27c5.9,1.1,20.3,9.7,26,12.6C1072.6,824,1081.2,941.9,1081.2,941.9z"/>
		<path class="st14" d="M1062.5,817.6c6.4,2,16.9,23.7,20.1,34.2c3.2,10.5,8.9,34,12,42.2c3.1,8.2-1.5,34-3.4,38.2
			c-4,8.4-21.9,2.1-27.3-6.7c-5.4-8.8-2-33.5-7.7-44.4c-5.7-10.9-15.5-21-18.7-28.2C1034.2,845.6,1025.1,805.7,1062.5,817.6z"/>
		<path class="st14" d="M1089.3,936.5c-0.5,0.5-15.6,7.7-32.6,9.4c-16.9,1.7-73.9,8.9-76.6,11.2c-2.7,2.3-8-14.8-8-14.8
			s19.7-6.6,33.7-12.2c14-5.5,58.4-22.4,67.7-21.6C1082.9,909.3,1092.2,933.5,1089.3,936.5z"/>
	</g>
	<g style="clip-path:url(#SVGID_00000121959277515477853590000013014841801319448747_);">
		<g>
			<g>
				<g>
					<polygon class="st15" points="1600.9,1837.9 1202.3,2227.5 1202.8,1837.7 					"/>
				</g>
			</g>
			<path class="st15" d="M1945.1,2395.6c-3.4,67.7-4,135.5-7.9,203.2c-1.9,33-1.8,75.5-32.3,96.5c-7.3,5-15.4,8.9-23.6,12.3
				l-578.7-591.9l190.8-186.5l451.9,462.2C1945.2,2392.7,1945.1,2394.1,1945.1,2395.6z"/>
		</g>
	</g>
	
		<rect x="302.3" y="2295.8" style="clip-path:url(#SVGID_00000121959277515477853590000013014841801319448747_);fill:#2E3192;" width="2136.5" height="20.8"/>
</g>
</svg>
