<?xml version="1.0" encoding="utf-8"?>
<!-- Generator: Adobe Illustrator 26.2.1, SVG Export Plug-In . SVG Version: 6.00 Build 0)  -->
<svg version="1.1" id="Layer_1" xmlns="http://www.w3.org/2000/svg" xmlns:xlink="http://www.w3.org/1999/xlink" x="0px" y="0px"
	 viewBox="0 0 64 64" style="enable-background:new 0 0 64 64;" xml:space="preserve">
<style type="text/css">
	.st0{fill:#90ECFF;}
</style>
<desc>A solid styled icon from Orion Icon Library.</desc>
<path class="st0" d="M41.3,37.5c9.2-5.1,12.4-16.7,7.3-25.9S31.8-0.8,22.7,4.4C16.7,7.7,13,14,13,20.8c12.3-3.3,24.9,4,28.2,16.2
	C41.2,37.2,41.3,37.3,41.3,37.5z"/>
<path class="st0" d="M28.8,26.7c-9-5.4-20.7-2.6-26.1,6.4S0.1,53.8,9.1,59.2c6.1,3.7,13.6,3.7,19.7,0C19.8,50.2,19.8,35.7,28.8,26.7
	z"/>
<path class="st0" d="M54.3,26.5c-3,12.3-15.5,19.9-27.8,16.8c-0.2,0-0.3-0.1-0.5-0.1c0.1,10.5,8.6,18.9,19.1,18.9
	c10.5-0.1,19-8.7,18.9-19.2C64,36.1,60.2,29.8,54.3,26.5z"/>
</svg>
