<?xml version="1.0" encoding="utf-8"?>
<!-- Generator: Adobe Illustrator 26.2.1, SVG Export Plug-In . SVG Version: 6.00 Build 0)  -->
<svg version="1.1" id="Layer_1" xmlns="http://www.w3.org/2000/svg" xmlns:xlink="http://www.w3.org/1999/xlink" x="0px" y="0px"
	 viewBox="0 0 64 64" style="enable-background:new 0 0 64 64;" xml:space="preserve">
<style type="text/css">
	.st0{fill:#90ECFF;}
</style>
<desc>A solid styled icon from Orion Icon Library.</desc>
<path class="st0" d="M56.4,27H54v-4c0-12.5-9-22-21-22h-2c-12,0-21,9.5-21,22v4H7.6c-2,0-3.6,1.6-3.6,3.6l0,0v10.8
	c0,2,1.6,3.6,3.6,3.6H18V27h-4v-4c0-10.3,7.3-18,17-18h2c9.7,0,17,7.7,17,18v4h-4v18h4c0,11.6-9,12-10,12h-0.6c-0.7-1.2-2-2-3.4-2
	h-4c-2.2,0-4,1.8-4,4s1.8,4,4,4h4c1.4,0,2.7-0.8,3.4-2H40c0.1,0,14-0.2,14-16h2.4c2,0,3.6-1.6,3.6-3.6V30.6C60,28.6,58.4,27,56.4,27
	z"/>
</svg>
