<?xml version="1.0" encoding="utf-8"?>
<!-- Generator: Adobe Illustrator 26.2.1, SVG Export Plug-In . SVG Version: 6.00 Build 0)  -->
<svg version="1.1" id="Layer_1" xmlns="http://www.w3.org/2000/svg" xmlns:xlink="http://www.w3.org/1999/xlink" x="0px" y="0px"
	 viewBox="0 0 64 64" style="enable-background:new 0 0 64 64;" xml:space="preserve">
<style type="text/css">
	.st0{fill:#90ECFF;}
</style>
<desc>A solid styled icon from Orion Icon Library.</desc>
<path class="st0" d="M33.4,1.5c-0.8-0.8-2-0.8-2.8,0l0,0L0,33c-0.2,0.2,0.8,1,1,1h7v29c0,0.6,0.4,1,1,1h14c0.6,0,1-0.4,1-1V46
	c0-0.6,0.4-1,1-1h14c0.6,0,1,0.4,1,1v17c0,0.6,0.4,1,1,1h14c0.6,0,1-0.4,1-1V34h7c0.2,0,1.2-0.8,1-1L33.4,1.5z"/>
</svg>
