<?xml version="1.0" encoding="utf-8"?>
<!-- Generator: Adobe Illustrator 26.2.1, SVG Export Plug-In . SVG Version: 6.00 Build 0)  -->
<svg version="1.1" id="Layer_1" xmlns="http://www.w3.org/2000/svg" xmlns:xlink="http://www.w3.org/1999/xlink" x="0px" y="0px"
	 viewBox="0 0 64 64" style="enable-background:new 0 0 64 64;" xml:space="preserve">
<style type="text/css">
	.st0{fill:#90ECFF;}
</style>
<desc>A solid styled icon from Orion Icon Library.</desc>
<path class="st0" d="M32,0C14.3,0,0,14.3,0,32s14.3,32,32,32s32-14.3,32-32S49.7,0,32,0z M29,15c1.4-1.3,3.6-1.3,5,0
	c0.7,0.7,1,1.5,1,2.5c0,1.9-1.6,3.5-3.5,3.5S28,19.4,28,17.5C28,16.6,28.4,15.7,29,15z M36,50h-8v-4h2V28h-2v-4h6v22h2V50z"/>
</svg>
